<svg xmlns="http://www.w3.org/2000/svg" width="400" height="120" fill="none" aria-labelledby="descId" role="img" viewBox="0 0 400 120"><title id="titleId"/><desc id="descId"/><style>.header{font:600 18px &apos;Segoe UI&apos;,Ubuntu,Sans-Serif;fill:#2f80ed;animation:fadeInAnimation .8s ease-in-out forwards}@supports (-moz-appearance:auto){.header{font-size:15.5px}}.description,.gray{font:400 13px &apos;Segoe UI&apos;,Ubuntu,Sans-Serif;fill:#434d58}.gray{font:400 12px &apos;Segoe UI&apos;,Ubuntu,Sans-Serif}.icon{fill:#586069}*{animation-duration:0s!important;animation-delay:0s!important}</style><rect width="399" height="99%" x=".5" y=".5" fill="#fffefe" stroke="#e4e2e2" stroke-opacity="1" data-testid="card-bg" rx="4.5"/><g data-testid="card-title"><g transform="translate(25, 35) translate(0, 0)"><svg width="16" height="16" x="0" y="-13" class="icon" version="1.1" viewBox="0 0 16 16"><path fill-rule="evenodd" d="M2 2.5A2.5 2.5 0 014.5 0h8.75a.75.75 0 01.75.75v12.5a.75.75 0 01-.75.75h-2.5a.75.75 0 110-1.5h1.75v-2h-8a1 1 0 00-.714 1.7.75.75 0 01-1.072 1.05A2.495 2.495 0 012 11.5v-9zm10.5-1V9h-8c-.356 0-.694.074-1 .208V2.5a1 1 0 011-1h8zM5 12.25v3.25a.25.25 0 00.4.2l1.45-1.087a.25.25 0 01.3 0L8.6 15.7a.25.25 0 00.4-.2v-3.25a.25.25 0 00-.25-.25h-3.5a.25.25 0 00-.25.25z"/></svg></g><g><text x="0" y="0" class="header" data-testid="header" transform="translate(25, 35) translate(25, 0)">deno-cli-tools</text></g></g><g data-testid="main-card-body"><text x="25" y="-5" class="description" transform="translate(0, 55)"><tspan x="25" dy="1.2em">cli practice powered by deno 🦕</tspan></text><g><g><g data-testid="primary-lang" transform="translate(0, 55) translate(30, 45) translate(0, 0)"><circle cx="0" cy="-5" r="6" fill="#3178c6" data-testid="lang-color"/><text x="15" class="gray" data-testid="lang-name">TypeScript</text></g></g><g><g transform="translate(0, 55) translate(30, 45) translate(82.24375, 0) translate(0, 0)"><svg width="16" height="16" y="-12" class="icon" version="1.1" viewBox="0 0 16 16"><path fill-rule="evenodd" d="M8 .25a.75.75 0 01.673.418l1.882 3.815 4.21.612a.75.75 0 01.416 1.279l-3.046 2.97.719 4.192a.75.75 0 01-1.088.791L8 12.347l-3.766 1.98a.75.75 0 01-1.088-.79l.72-4.194L.818 6.374a.75.75 0 01.416-1.28l4.21-.611L7.327.668A.75.75 0 018 .25zm0 2.445L6.615 5.5a.75.75 0 01-.564.41l-3.097.45 2.24 2.184a.75.75 0 01.216.664l-.528 3.084 2.769-1.456a.75.75 0 01.698 0l2.77 1.456-.53-3.084a.75.75 0 01.216-.664l2.24-2.183-3.096-.45a.75.75 0 01-.564-.41L8 2.694v.001z"/></svg></g><g><text class="gray" data-testid="stargazers" transform="translate(0, 55) translate(30, 45) translate(82.24375, 0) translate(20, 0)">7</text></g></g><g><g transform="translate(0, 55) translate(30, 45) translate(129.9, 0) translate(0, 0)"><svg width="16" height="16" y="-12" class="icon" version="1.1" viewBox="0 0 16 16"><path fill-rule="evenodd" d="M5 3.25a.75.75 0 11-1.5 0 .75.75 0 011.5 0zm0 2.122a2.25 2.25 0 10-1.5 0v.878A2.25 2.25 0 005.75 8.5h1.5v2.128a2.251 2.251 0 101.5 0V8.5h1.5a2.25 2.25 0 002.25-2.25v-.878a2.25 2.25 0 10-1.5 0v.878a.75.75 0 01-.75.75h-4.5A.75.75 0 015 6.25v-.878zm3.75 7.378a.75.75 0 11-1.5 0 .75.75 0 011.5 0zm3-8.75a.75.75 0 100-1.5.75.75 0 000 1.5z"/></svg></g><g><text class="gray" data-testid="forkcount" transform="translate(0, 55) translate(30, 45) translate(129.9, 0) translate(20, 0)">1</text></g></g></g></g></svg>