<svg width="712" height="127" xmlns="http://www.w3.org/2000/svg" id="typograssy"><style>#typograssy #text-pixels{animation:step 23200ms steps(116) infinite;}@keyframes step{to{transform:translateX(-1508px);}}#typograssy .pixel{width:10px;height:10px;rx:2px;ry:2px;stroke:rgba(27,31,35,0.06);stroke-width:2px;}#typograssy text{font-family:monospace;}#typograssy .l0{fill:#ebedf0;}#typograssy .l1{fill:#9be9a8;}#typograssy .l2{fill:#40c463;}#typograssy .l3{fill:#30a14e;}#typograssy .l4{fill:#216e39;}</style><rect width="712" height="127" stroke="none" fill="none"></rect><svg x="13" y="13" width="686" height="101"><g><rect class="pixel l0" x="0" y="0"></rect><rect class="pixel l0" x="0" y="13"></rect><rect class="pixel l0" x="0" y="26"></rect><rect class="pixel l0" x="0" y="39"></rect><rect class="pixel l0" x="0" y="52"></rect><rect class="pixel l0" x="0" y="65"></rect><rect class="pixel l0" x="0" y="78"></rect><rect class="pixel l0" x="13" y="0"></rect><rect class="pixel l0" x="13" y="13"></rect><rect class="pixel l0" x="13" y="26"></rect><rect class="pixel l0" x="13" y="39"></rect><rect class="pixel l0" x="13" y="52"></rect><rect class="pixel l0" x="13" y="65"></rect><rect class="pixel l0" x="13" y="78"></rect><rect class="pixel l0" x="26" y="0"></rect><rect class="pixel l0" x="26" y="13"></rect><rect class="pixel l0" x="26" y="26"></rect><rect class="pixel l0" x="26" y="39"></rect><rect class="pixel l0" x="26" y="52"></rect><rect class="pixel l0" x="26" y="65"></rect><rect class="pixel l0" x="26" y="78"></rect><rect class="pixel l0" x="39" y="0"></rect><rect class="pixel l0" x="39" y="13"></rect><rect class="pixel l0" x="39" y="26"></rect><rect class="pixel l0" x="39" y="39"></rect><rect class="pixel l0" x="39" y="52"></rect><rect class="pixel l0" x="39" y="65"></rect><rect class="pixel l0" x="39" y="78"></rect><rect class="pixel l0" x="52" y="0"></rect><rect class="pixel l0" x="52" y="13"></rect><rect class="pixel l0" x="52" y="26"></rect><rect class="pixel l0" x="52" y="39"></rect><rect class="pixel l0" x="52" y="52"></rect><rect class="pixel l0" x="52" y="65"></rect><rect class="pixel l0" x="52" y="78"></rect><rect class="pixel l0" x="65" y="0"></rect><rect class="pixel l0" x="65" y="13"></rect><rect class="pixel l0" x="65" y="26"></rect><rect class="pixel l0" x="65" y="39"></rect><rect class="pixel l0" x="65" y="52"></rect><rect class="pixel l0" x="65" y="65"></rect><rect class="pixel l0" x="65" y="78"></rect><rect class="pixel l0" x="78" y="0"></rect><rect class="pixel l0" x="78" y="13"></rect><rect class="pixel l0" x="78" y="26"></rect><rect class="pixel l0" x="78" y="39"></rect><rect class="pixel l0" x="78" y="52"></rect><rect class="pixel l0" x="78" y="65"></rect><rect class="pixel l0" x="78" y="78"></rect><rect class="pixel l0" x="91" y="0"></rect><rect class="pixel l0" x="91" y="13"></rect><rect class="pixel l0" x="91" y="26"></rect><rect class="pixel l0" x="91" y="39"></rect><rect class="pixel l0" x="91" y="52"></rect><rect class="pixel l0" x="91" y="65"></rect><rect class="pixel l0" x="91" y="78"></rect><rect class="pixel l0" x="104" y="0"></rect><rect class="pixel l0" x="104" y="13"></rect><rect class="pixel l0" x="104" y="26"></rect><rect class="pixel l0" x="104" y="39"></rect><rect class="pixel l0" x="104" y="52"></rect><rect class="pixel l0" x="104" y="65"></rect><rect class="pixel l0" x="104" y="78"></rect><rect class="pixel l0" x="117" y="0"></rect><rect class="pixel l0" x="117" y="13"></rect><rect class="pixel l0" x="117" y="26"></rect><rect class="pixel l0" x="117" y="39"></rect><rect class="pixel l0" x="117" y="52"></rect><rect class="pixel l0" x="117" y="65"></rect><rect class="pixel l0" x="117" y="78"></rect><rect class="pixel l0" x="130" y="0"></rect><rect class="pixel l0" x="130" y="13"></rect><rect class="pixel l0" x="130" y="26"></rect><rect class="pixel l0" x="130" y="39"></rect><rect class="pixel l0" x="130" y="52"></rect><rect class="pixel l0" x="130" y="65"></rect><rect class="pixel l0" x="130" y="78"></rect><rect class="pixel l0" x="143" y="0"></rect><rect class="pixel l0" x="143" y="13"></rect><rect class="pixel l0" x="143" y="26"></rect><rect class="pixel l0" x="143" y="39"></rect><rect class="pixel l0" x="143" y="52"></rect><rect class="pixel l0" x="143" y="65"></rect><rect class="pixel l0" x="143" y="78"></rect><rect class="pixel l0" x="156" y="0"></rect><rect class="pixel l0" x="156" y="13"></rect><rect class="pixel l0" x="156" y="26"></rect><rect class="pixel l0" x="156" y="39"></rect><rect class="pixel l0" x="156" y="52"></rect><rect class="pixel l0" x="156" y="65"></rect><rect class="pixel l0" x="156" y="78"></rect><rect class="pixel l0" x="169" y="0"></rect><rect class="pixel l0" x="169" y="13"></rect><rect class="pixel l0" x="169" y="26"></rect><rect class="pixel l0" x="169" y="39"></rect><rect class="pixel l0" x="169" y="52"></rect><rect class="pixel l0" x="169" y="65"></rect><rect class="pixel l0" x="169" y="78"></rect><rect class="pixel l0" x="182" y="0"></rect><rect class="pixel l0" x="182" y="13"></rect><rect class="pixel l0" x="182" y="26"></rect><rect class="pixel l0" x="182" y="39"></rect><rect class="pixel l0" x="182" y="52"></rect><rect class="pixel l0" x="182" y="65"></rect><rect class="pixel l0" x="182" y="78"></rect><rect class="pixel l0" x="195" y="0"></rect><rect class="pixel l0" x="195" y="13"></rect><rect class="pixel l0" x="195" y="26"></rect><rect class="pixel l0" x="195" y="39"></rect><rect class="pixel l0" x="195" y="52"></rect><rect class="pixel l0" x="195" y="65"></rect><rect class="pixel l0" x="195" y="78"></rect><rect class="pixel l0" x="208" y="0"></rect><rect class="pixel l0" x="208" y="13"></rect><rect class="pixel l0" x="208" y="26"></rect><rect class="pixel l0" x="208" y="39"></rect><rect class="pixel l0" x="208" y="52"></rect><rect class="pixel l0" x="208" y="65"></rect><rect class="pixel l0" x="208" y="78"></rect><rect class="pixel l0" x="221" y="0"></rect><rect class="pixel l0" x="221" y="13"></rect><rect class="pixel l0" x="221" y="26"></rect><rect class="pixel l0" x="221" y="39"></rect><rect class="pixel l0" x="221" y="52"></rect><rect class="pixel l0" x="221" y="65"></rect><rect class="pixel l0" x="221" y="78"></rect><rect class="pixel l0" x="234" y="0"></rect><rect class="pixel l0" x="234" y="13"></rect><rect class="pixel l0" x="234" y="26"></rect><rect class="pixel l0" x="234" y="39"></rect><rect class="pixel l0" x="234" y="52"></rect><rect class="pixel l0" x="234" y="65"></rect><rect class="pixel l0" x="234" y="78"></rect><rect class="pixel l0" x="247" y="0"></rect><rect class="pixel l0" x="247" y="13"></rect><rect class="pixel l0" x="247" y="26"></rect><rect class="pixel l0" x="247" y="39"></rect><rect class="pixel l0" x="247" y="52"></rect><rect class="pixel l0" x="247" y="65"></rect><rect class="pixel l0" x="247" y="78"></rect><rect class="pixel l0" x="260" y="0"></rect><rect class="pixel l0" x="260" y="13"></rect><rect class="pixel l0" x="260" y="26"></rect><rect class="pixel l0" x="260" y="39"></rect><rect class="pixel l0" x="260" y="52"></rect><rect class="pixel l0" x="260" y="65"></rect><rect class="pixel l0" x="260" y="78"></rect><rect class="pixel l0" x="273" y="0"></rect><rect class="pixel l0" x="273" y="13"></rect><rect class="pixel l0" x="273" y="26"></rect><rect class="pixel l0" x="273" y="39"></rect><rect class="pixel l0" x="273" y="52"></rect><rect class="pixel l0" x="273" y="65"></rect><rect class="pixel l0" x="273" y="78"></rect><rect class="pixel l0" x="286" y="0"></rect><rect class="pixel l0" x="286" y="13"></rect><rect class="pixel l0" x="286" y="26"></rect><rect class="pixel l0" x="286" y="39"></rect><rect class="pixel l0" x="286" y="52"></rect><rect class="pixel l0" x="286" y="65"></rect><rect class="pixel l0" x="286" y="78"></rect><rect class="pixel l0" x="299" y="0"></rect><rect class="pixel l0" x="299" y="13"></rect><rect class="pixel l0" x="299" y="26"></rect><rect class="pixel l0" x="299" y="39"></rect><rect class="pixel l0" x="299" y="52"></rect><rect class="pixel l0" x="299" y="65"></rect><rect class="pixel l0" x="299" y="78"></rect><rect class="pixel l0" x="312" y="0"></rect><rect class="pixel l0" x="312" y="13"></rect><rect class="pixel l0" x="312" y="26"></rect><rect class="pixel l0" x="312" y="39"></rect><rect class="pixel l0" x="312" y="52"></rect><rect class="pixel l0" x="312" y="65"></rect><rect class="pixel l0" x="312" y="78"></rect><rect class="pixel l0" x="325" y="0"></rect><rect class="pixel l0" x="325" y="13"></rect><rect class="pixel l0" x="325" y="26"></rect><rect class="pixel l0" x="325" y="39"></rect><rect class="pixel l0" x="325" y="52"></rect><rect class="pixel l0" x="325" y="65"></rect><rect class="pixel l0" x="325" y="78"></rect><rect class="pixel l0" x="338" y="0"></rect><rect class="pixel l0" x="338" y="13"></rect><rect class="pixel l0" x="338" y="26"></rect><rect class="pixel l0" x="338" y="39"></rect><rect class="pixel l0" x="338" y="52"></rect><rect class="pixel l0" x="338" y="65"></rect><rect class="pixel l0" x="338" y="78"></rect><rect class="pixel l0" x="351" y="0"></rect><rect class="pixel l0" x="351" y="13"></rect><rect class="pixel l0" x="351" y="26"></rect><rect class="pixel l0" x="351" y="39"></rect><rect class="pixel l0" x="351" y="52"></rect><rect class="pixel l0" x="351" y="65"></rect><rect class="pixel l0" x="351" y="78"></rect><rect class="pixel l0" x="364" y="0"></rect><rect class="pixel l0" x="364" y="13"></rect><rect class="pixel l0" x="364" y="26"></rect><rect class="pixel l0" x="364" y="39"></rect><rect class="pixel l0" x="364" y="52"></rect><rect class="pixel l0" x="364" y="65"></rect><rect class="pixel l0" x="364" y="78"></rect><rect class="pixel l0" x="377" y="0"></rect><rect class="pixel l0" x="377" y="13"></rect><rect class="pixel l0" x="377" y="26"></rect><rect class="pixel l0" x="377" y="39"></rect><rect class="pixel l0" x="377" y="52"></rect><rect class="pixel l0" x="377" y="65"></rect><rect class="pixel l0" x="377" y="78"></rect><rect class="pixel l0" x="390" y="0"></rect><rect class="pixel l0" x="390" y="13"></rect><rect class="pixel l0" x="390" y="26"></rect><rect class="pixel l0" x="390" y="39"></rect><rect class="pixel l0" x="390" y="52"></rect><rect class="pixel l0" x="390" y="65"></rect><rect class="pixel l0" x="390" y="78"></rect><rect class="pixel l0" x="403" y="0"></rect><rect class="pixel l0" x="403" y="13"></rect><rect class="pixel l0" x="403" y="26"></rect><rect class="pixel l0" x="403" y="39"></rect><rect class="pixel l0" x="403" y="52"></rect><rect class="pixel l0" x="403" y="65"></rect><rect class="pixel l0" x="403" y="78"></rect><rect class="pixel l0" x="416" y="0"></rect><rect class="pixel l0" x="416" y="13"></rect><rect class="pixel l0" x="416" y="26"></rect><rect class="pixel l0" x="416" y="39"></rect><rect class="pixel l0" x="416" y="52"></rect><rect class="pixel l0" x="416" y="65"></rect><rect class="pixel l0" x="416" y="78"></rect><rect class="pixel l0" x="429" y="0"></rect><rect class="pixel l0" x="429" y="13"></rect><rect class="pixel l0" x="429" y="26"></rect><rect class="pixel l0" x="429" y="39"></rect><rect class="pixel l0" x="429" y="52"></rect><rect class="pixel l0" x="429" y="65"></rect><rect class="pixel l0" x="429" y="78"></rect><rect class="pixel l0" x="442" y="0"></rect><rect class="pixel l0" x="442" y="13"></rect><rect class="pixel l0" x="442" y="26"></rect><rect class="pixel l0" x="442" y="39"></rect><rect class="pixel l0" x="442" y="52"></rect><rect class="pixel l0" x="442" y="65"></rect><rect class="pixel l0" x="442" y="78"></rect><rect class="pixel l0" x="455" y="0"></rect><rect class="pixel l0" x="455" y="13"></rect><rect class="pixel l0" x="455" y="26"></rect><rect class="pixel l0" x="455" y="39"></rect><rect class="pixel l0" x="455" y="52"></rect><rect class="pixel l0" x="455" y="65"></rect><rect class="pixel l0" x="455" y="78"></rect><rect class="pixel l0" x="468" y="0"></rect><rect class="pixel l0" x="468" y="13"></rect><rect class="pixel l0" x="468" y="26"></rect><rect class="pixel l0" x="468" y="39"></rect><rect class="pixel l0" x="468" y="52"></rect><rect class="pixel l0" x="468" y="65"></rect><rect class="pixel l0" x="468" y="78"></rect><rect class="pixel l0" x="481" y="0"></rect><rect class="pixel l0" x="481" y="13"></rect><rect class="pixel l0" x="481" y="26"></rect><rect class="pixel l0" x="481" y="39"></rect><rect class="pixel l0" x="481" y="52"></rect><rect class="pixel l0" x="481" y="65"></rect><rect class="pixel l0" x="481" y="78"></rect><rect class="pixel l0" x="494" y="0"></rect><rect class="pixel l0" x="494" y="13"></rect><rect class="pixel l0" x="494" y="26"></rect><rect class="pixel l0" x="494" y="39"></rect><rect class="pixel l0" x="494" y="52"></rect><rect class="pixel l0" x="494" y="65"></rect><rect class="pixel l0" x="494" y="78"></rect><rect class="pixel l0" x="507" y="0"></rect><rect class="pixel l0" x="507" y="13"></rect><rect class="pixel l0" x="507" y="26"></rect><rect class="pixel l0" x="507" y="39"></rect><rect class="pixel l0" x="507" y="52"></rect><rect class="pixel l0" x="507" y="65"></rect><rect class="pixel l0" x="507" y="78"></rect><rect class="pixel l0" x="520" y="0"></rect><rect class="pixel l0" x="520" y="13"></rect><rect class="pixel l0" x="520" y="26"></rect><rect class="pixel l0" x="520" y="39"></rect><rect class="pixel l0" x="520" y="52"></rect><rect class="pixel l0" x="520" y="65"></rect><rect class="pixel l0" x="520" y="78"></rect><rect class="pixel l0" x="533" y="0"></rect><rect class="pixel l0" x="533" y="13"></rect><rect class="pixel l0" x="533" y="26"></rect><rect class="pixel l0" x="533" y="39"></rect><rect class="pixel l0" x="533" y="52"></rect><rect class="pixel l0" x="533" y="65"></rect><rect class="pixel l0" x="533" y="78"></rect><rect class="pixel l0" x="546" y="0"></rect><rect class="pixel l0" x="546" y="13"></rect><rect class="pixel l0" x="546" y="26"></rect><rect class="pixel l0" x="546" y="39"></rect><rect class="pixel l0" x="546" y="52"></rect><rect class="pixel l0" x="546" y="65"></rect><rect class="pixel l0" x="546" y="78"></rect><rect class="pixel l0" x="559" y="0"></rect><rect class="pixel l0" x="559" y="13"></rect><rect class="pixel l0" x="559" y="26"></rect><rect class="pixel l0" x="559" y="39"></rect><rect class="pixel l0" x="559" y="52"></rect><rect class="pixel l0" x="559" y="65"></rect><rect class="pixel l0" x="559" y="78"></rect><rect class="pixel l0" x="572" y="0"></rect><rect class="pixel l0" x="572" y="13"></rect><rect class="pixel l0" x="572" y="26"></rect><rect class="pixel l0" x="572" y="39"></rect><rect class="pixel l0" x="572" y="52"></rect><rect class="pixel l0" x="572" y="65"></rect><rect class="pixel l0" x="572" y="78"></rect><rect class="pixel l0" x="585" y="0"></rect><rect class="pixel l0" x="585" y="13"></rect><rect class="pixel l0" x="585" y="26"></rect><rect class="pixel l0" x="585" y="39"></rect><rect class="pixel l0" x="585" y="52"></rect><rect class="pixel l0" x="585" y="65"></rect><rect class="pixel l0" x="585" y="78"></rect><rect class="pixel l0" x="598" y="0"></rect><rect class="pixel l0" x="598" y="13"></rect><rect class="pixel l0" x="598" y="26"></rect><rect class="pixel l0" x="598" y="39"></rect><rect class="pixel l0" x="598" y="52"></rect><rect class="pixel l0" x="598" y="65"></rect><rect class="pixel l0" x="598" y="78"></rect><rect class="pixel l0" x="611" y="0"></rect><rect class="pixel l0" x="611" y="13"></rect><rect class="pixel l0" x="611" y="26"></rect><rect class="pixel l0" x="611" y="39"></rect><rect class="pixel l0" x="611" y="52"></rect><rect class="pixel l0" x="611" y="65"></rect><rect class="pixel l0" x="611" y="78"></rect><rect class="pixel l0" x="624" y="0"></rect><rect class="pixel l0" x="624" y="13"></rect><rect class="pixel l0" x="624" y="26"></rect><rect class="pixel l0" x="624" y="39"></rect><rect class="pixel l0" x="624" y="52"></rect><rect class="pixel l0" x="624" y="65"></rect><rect class="pixel l0" x="624" y="78"></rect><rect class="pixel l0" x="637" y="0"></rect><rect class="pixel l0" x="637" y="13"></rect><rect class="pixel l0" x="637" y="26"></rect><rect class="pixel l0" x="637" y="39"></rect><rect class="pixel l0" x="637" y="52"></rect><rect class="pixel l0" x="637" y="65"></rect><rect class="pixel l0" x="637" y="78"></rect><rect class="pixel l0" x="650" y="0"></rect><rect class="pixel l0" x="650" y="13"></rect><rect class="pixel l0" x="650" y="26"></rect><rect class="pixel l0" x="650" y="39"></rect><rect class="pixel l0" x="650" y="52"></rect><rect class="pixel l0" x="650" y="65"></rect><rect class="pixel l0" x="650" y="78"></rect><rect class="pixel l0" x="663" y="0"></rect><rect class="pixel l0" x="663" y="13"></rect><rect class="pixel l0" x="663" y="26"></rect><rect class="pixel l0" x="663" y="39"></rect><rect class="pixel l0" x="663" y="52"></rect><rect class="pixel l0" x="663" y="65"></rect><rect class="pixel l0" x="663" y="78"></rect><rect class="pixel l0" x="676" y="0"></rect><rect class="pixel l0" x="676" y="13"></rect><rect class="pixel l0" x="676" y="26"></rect><rect class="pixel l0" x="676" y="39"></rect><rect class="pixel l0" x="676" y="52"></rect><rect class="pixel l0" x="676" y="65"></rect><rect class="pixel l0" x="676" y="78"></rect></g><g id="text-pixels"><rect class="pixel l2" x="13" y="0"></rect><rect class="pixel l2" x="1521" y="0"></rect><rect class="pixel l1" x="13" y="13"></rect><rect class="pixel l1" x="1521" y="13"></rect><rect class="pixel l2" x="13" y="26"></rect><rect class="pixel l2" x="1521" y="26"></rect><rect class="pixel l4" x="13" y="39"></rect><rect class="pixel l4" x="1521" y="39"></rect><rect class="pixel l3" x="13" y="52"></rect><rect class="pixel l3" x="1521" y="52"></rect><rect class="pixel l2" x="13" y="65"></rect><rect class="pixel l2" x="1521" y="65"></rect><rect class="pixel l4" x="13" y="78"></rect><rect class="pixel l4" x="1521" y="78"></rect><rect class="pixel l3" x="26" y="39"></rect><rect class="pixel l3" x="1534" y="39"></rect><rect class="pixel l1" x="39" y="0"></rect><rect class="pixel l1" x="1547" y="0"></rect><rect class="pixel l3" x="39" y="13"></rect><rect class="pixel l3" x="1547" y="13"></rect><rect class="pixel l2" x="39" y="26"></rect><rect class="pixel l2" x="1547" y="26"></rect><rect class="pixel l1" x="39" y="39"></rect><rect class="pixel l1" x="1547" y="39"></rect><rect class="pixel l1" x="39" y="52"></rect><rect class="pixel l1" x="1547" y="52"></rect><rect class="pixel l4" x="39" y="65"></rect><rect class="pixel l4" x="1547" y="65"></rect><rect class="pixel l1" x="39" y="78"></rect><rect class="pixel l1" x="1547" y="78"></rect><rect class="pixel l1" x="65" y="39"></rect><rect class="pixel l1" x="1573" y="39"></rect><rect class="pixel l2" x="65" y="52"></rect><rect class="pixel l2" x="1573" y="52"></rect><rect class="pixel l4" x="65" y="65"></rect><rect class="pixel l4" x="1573" y="65"></rect><rect class="pixel l3" x="78" y="26"></rect><rect class="pixel l3" x="1586" y="26"></rect><rect class="pixel l1" x="78" y="52"></rect><rect class="pixel l1" x="1586" y="52"></rect><rect class="pixel l4" x="78" y="78"></rect><rect class="pixel l4" x="1586" y="78"></rect><rect class="pixel l1" x="91" y="39"></rect><rect class="pixel l1" x="1599" y="39"></rect><rect class="pixel l3" x="91" y="52"></rect><rect class="pixel l3" x="1599" y="52"></rect><rect class="pixel l3" x="91" y="78"></rect><rect class="pixel l3" x="1599" y="78"></rect><rect class="pixel l3" x="117" y="0"></rect><rect class="pixel l3" x="1625" y="0"></rect><rect class="pixel l4" x="130" y="0"></rect><rect class="pixel l4" x="1638" y="0"></rect><rect class="pixel l4" x="130" y="13"></rect><rect class="pixel l4" x="1638" y="13"></rect><rect class="pixel l4" x="130" y="26"></rect><rect class="pixel l4" x="1638" y="26"></rect><rect class="pixel l1" x="130" y="39"></rect><rect class="pixel l1" x="1638" y="39"></rect><rect class="pixel l3" x="130" y="52"></rect><rect class="pixel l3" x="1638" y="52"></rect><rect class="pixel l3" x="130" y="65"></rect><rect class="pixel l3" x="1638" y="65"></rect><rect class="pixel l1" x="130" y="78"></rect><rect class="pixel l1" x="1638" y="78"></rect><rect class="pixel l3" x="169" y="0"></rect><rect class="pixel l3" x="1677" y="0"></rect><rect class="pixel l1" x="182" y="0"></rect><rect class="pixel l1" x="1690" y="0"></rect><rect class="pixel l2" x="182" y="13"></rect><rect class="pixel l2" x="1690" y="13"></rect><rect class="pixel l3" x="182" y="26"></rect><rect class="pixel l3" x="1690" y="26"></rect><rect class="pixel l3" x="182" y="39"></rect><rect class="pixel l3" x="1690" y="39"></rect><rect class="pixel l1" x="182" y="52"></rect><rect class="pixel l1" x="1690" y="52"></rect><rect class="pixel l2" x="182" y="65"></rect><rect class="pixel l2" x="1690" y="65"></rect><rect class="pixel l2" x="182" y="78"></rect><rect class="pixel l2" x="1690" y="78"></rect><rect class="pixel l2" x="221" y="39"></rect><rect class="pixel l2" x="1729" y="39"></rect><rect class="pixel l2" x="221" y="52"></rect><rect class="pixel l2" x="1729" y="52"></rect><rect class="pixel l3" x="221" y="65"></rect><rect class="pixel l3" x="1729" y="65"></rect><rect class="pixel l2" x="234" y="26"></rect><rect class="pixel l2" x="1742" y="26"></rect><rect class="pixel l4" x="234" y="78"></rect><rect class="pixel l4" x="1742" y="78"></rect><rect class="pixel l4" x="247" y="39"></rect><rect class="pixel l4" x="1755" y="39"></rect><rect class="pixel l3" x="247" y="52"></rect><rect class="pixel l3" x="1755" y="52"></rect><rect class="pixel l2" x="247" y="65"></rect><rect class="pixel l2" x="1755" y="65"></rect><rect class="pixel l4" x="325" y="26"></rect><rect class="pixel l4" x="1833" y="26"></rect><rect class="pixel l4" x="325" y="39"></rect><rect class="pixel l4" x="1833" y="39"></rect><rect class="pixel l1" x="325" y="52"></rect><rect class="pixel l1" x="1833" y="52"></rect><rect class="pixel l2" x="325" y="65"></rect><rect class="pixel l2" x="1833" y="65"></rect><rect class="pixel l3" x="325" y="78"></rect><rect class="pixel l3" x="1833" y="78"></rect><rect class="pixel l2" x="338" y="52"></rect><rect class="pixel l2" x="1846" y="52"></rect><rect class="pixel l1" x="338" y="65"></rect><rect class="pixel l1" x="1846" y="65"></rect><rect class="pixel l3" x="351" y="26"></rect><rect class="pixel l3" x="1859" y="26"></rect><rect class="pixel l4" x="351" y="39"></rect><rect class="pixel l4" x="1859" y="39"></rect><rect class="pixel l2" x="351" y="52"></rect><rect class="pixel l2" x="1859" y="52"></rect><rect class="pixel l3" x="351" y="65"></rect><rect class="pixel l3" x="1859" y="65"></rect><rect class="pixel l2" x="351" y="78"></rect><rect class="pixel l2" x="1859" y="78"></rect><rect class="pixel l1" x="377" y="39"></rect><rect class="pixel l1" x="1885" y="39"></rect><rect class="pixel l2" x="377" y="52"></rect><rect class="pixel l2" x="1885" y="52"></rect><rect class="pixel l1" x="377" y="65"></rect><rect class="pixel l1" x="1885" y="65"></rect><rect class="pixel l1" x="390" y="26"></rect><rect class="pixel l1" x="1898" y="26"></rect><rect class="pixel l3" x="390" y="78"></rect><rect class="pixel l3" x="1898" y="78"></rect><rect class="pixel l3" x="403" y="39"></rect><rect class="pixel l3" x="1911" y="39"></rect><rect class="pixel l3" x="403" y="52"></rect><rect class="pixel l3" x="1911" y="52"></rect><rect class="pixel l3" x="403" y="65"></rect><rect class="pixel l3" x="1911" y="65"></rect><rect class="pixel l2" x="429" y="26"></rect><rect class="pixel l2" x="1937" y="26"></rect><rect class="pixel l3" x="429" y="39"></rect><rect class="pixel l3" x="1937" y="39"></rect><rect class="pixel l4" x="429" y="52"></rect><rect class="pixel l4" x="1937" y="52"></rect><rect class="pixel l2" x="429" y="65"></rect><rect class="pixel l2" x="1937" y="65"></rect><rect class="pixel l3" x="429" y="78"></rect><rect class="pixel l3" x="1937" y="78"></rect><rect class="pixel l2" x="442" y="39"></rect><rect class="pixel l2" x="1950" y="39"></rect><rect class="pixel l4" x="455" y="26"></rect><rect class="pixel l4" x="1963" y="26"></rect><rect class="pixel l2" x="481" y="0"></rect><rect class="pixel l2" x="1989" y="0"></rect><rect class="pixel l1" x="494" y="0"></rect><rect class="pixel l1" x="2002" y="0"></rect><rect class="pixel l1" x="494" y="13"></rect><rect class="pixel l1" x="2002" y="13"></rect><rect class="pixel l2" x="494" y="26"></rect><rect class="pixel l2" x="2002" y="26"></rect><rect class="pixel l4" x="494" y="39"></rect><rect class="pixel l4" x="2002" y="39"></rect><rect class="pixel l1" x="494" y="52"></rect><rect class="pixel l1" x="2002" y="52"></rect><rect class="pixel l4" x="494" y="65"></rect><rect class="pixel l4" x="2002" y="65"></rect><rect class="pixel l2" x="494" y="78"></rect><rect class="pixel l2" x="2002" y="78"></rect><rect class="pixel l1" x="533" y="39"></rect><rect class="pixel l1" x="2041" y="39"></rect><rect class="pixel l4" x="533" y="52"></rect><rect class="pixel l4" x="2041" y="52"></rect><rect class="pixel l3" x="533" y="65"></rect><rect class="pixel l3" x="2041" y="65"></rect><rect class="pixel l3" x="546" y="26"></rect><rect class="pixel l3" x="2054" y="26"></rect><rect class="pixel l4" x="546" y="78"></rect><rect class="pixel l4" x="2054" y="78"></rect><rect class="pixel l4" x="559" y="0"></rect><rect class="pixel l4" x="2067" y="0"></rect><rect class="pixel l4" x="559" y="13"></rect><rect class="pixel l4" x="2067" y="13"></rect><rect class="pixel l1" x="559" y="26"></rect><rect class="pixel l1" x="2067" y="26"></rect><rect class="pixel l4" x="559" y="39"></rect><rect class="pixel l4" x="2067" y="39"></rect><rect class="pixel l2" x="559" y="52"></rect><rect class="pixel l2" x="2067" y="52"></rect><rect class="pixel l2" x="559" y="65"></rect><rect class="pixel l2" x="2067" y="65"></rect><rect class="pixel l2" x="559" y="78"></rect><rect class="pixel l2" x="2067" y="78"></rect><rect class="pixel l3" x="598" y="0"></rect><rect class="pixel l3" x="2106" y="0"></rect><rect class="pixel l4" x="598" y="13"></rect><rect class="pixel l4" x="2106" y="13"></rect><rect class="pixel l3" x="598" y="26"></rect><rect class="pixel l3" x="2106" y="26"></rect><rect class="pixel l1" x="598" y="39"></rect><rect class="pixel l1" x="2106" y="39"></rect><rect class="pixel l3" x="598" y="52"></rect><rect class="pixel l3" x="2106" y="52"></rect><rect class="pixel l2" x="598" y="78"></rect><rect class="pixel l2" x="2106" y="78"></rect><rect class="pixel l1" x="689" y="65"></rect><rect class="pixel l1" x="702" y="13"></rect><rect class="pixel l4" x="702" y="52"></rect><rect class="pixel l1" x="702" y="78"></rect><rect class="pixel l3" x="715" y="13"></rect><rect class="pixel l2" x="715" y="78"></rect><rect class="pixel l2" x="728" y="13"></rect><rect class="pixel l2" x="728" y="78"></rect><rect class="pixel l4" x="741" y="13"></rect><rect class="pixel l1" x="741" y="78"></rect><rect class="pixel l4" x="754" y="13"></rect><rect class="pixel l3" x="754" y="78"></rect><rect class="pixel l3" x="767" y="78"></rect><rect class="pixel l3" x="793" y="78"></rect><rect class="pixel l4" x="806" y="52"></rect><rect class="pixel l2" x="806" y="65"></rect><rect class="pixel l1" x="819" y="26"></rect><rect class="pixel l1" x="819" y="39"></rect><rect class="pixel l2" x="832" y="0"></rect><rect class="pixel l2" x="832" y="13"></rect><rect class="pixel l4" x="832" y="39"></rect><rect class="pixel l1" x="845" y="52"></rect><rect class="pixel l4" x="845" y="65"></rect><rect class="pixel l3" x="858" y="78"></rect><rect class="pixel l1" x="871" y="52"></rect><rect class="pixel l1" x="871" y="65"></rect><rect class="pixel l2" x="897" y="0"></rect><rect class="pixel l2" x="897" y="13"></rect><rect class="pixel l2" x="897" y="26"></rect><rect class="pixel l1" x="897" y="39"></rect><rect class="pixel l4" x="897" y="52"></rect><rect class="pixel l2" x="897" y="65"></rect><rect class="pixel l3" x="897" y="78"></rect><rect class="pixel l3" x="923" y="65"></rect><rect class="pixel l3" x="936" y="13"></rect><rect class="pixel l3" x="936" y="52"></rect><rect class="pixel l1" x="936" y="78"></rect><rect class="pixel l2" x="949" y="13"></rect><rect class="pixel l2" x="949" y="78"></rect><rect class="pixel l2" x="962" y="13"></rect><rect class="pixel l2" x="962" y="78"></rect><rect class="pixel l2" x="975" y="78"></rect><rect class="pixel l1" x="1001" y="13"></rect><rect class="pixel l1" x="1014" y="13"></rect><rect class="pixel l2" x="1014" y="39"></rect><rect class="pixel l4" x="1014" y="52"></rect><rect class="pixel l1" x="1027" y="0"></rect><rect class="pixel l2" x="1027" y="13"></rect><rect class="pixel l2" x="1027" y="26"></rect><rect class="pixel l2" x="1027" y="52"></rect><rect class="pixel l4" x="1027" y="78"></rect><rect class="pixel l3" x="1040" y="13"></rect><rect class="pixel l1" x="1040" y="39"></rect><rect class="pixel l2" x="1040" y="78"></rect><rect class="pixel l4" x="1053" y="13"></rect><rect class="pixel l4" x="1053" y="39"></rect><rect class="pixel l1" x="1053" y="78"></rect><rect class="pixel l1" x="1066" y="13"></rect><rect class="pixel l2" x="1066" y="39"></rect><rect class="pixel l1" x="1066" y="65"></rect><rect class="pixel l1" x="1079" y="13"></rect><rect class="pixel l1" x="1079" y="52"></rect><rect class="pixel l4" x="1105" y="0"></rect><rect class="pixel l2" x="1105" y="13"></rect><rect class="pixel l3" x="1105" y="26"></rect><rect class="pixel l1" x="1105" y="39"></rect><rect class="pixel l1" x="1105" y="52"></rect><rect class="pixel l1" x="1105" y="65"></rect><rect class="pixel l4" x="1105" y="78"></rect><rect class="pixel l4" x="1118" y="65"></rect><rect class="pixel l1" x="1131" y="13"></rect><rect class="pixel l3" x="1131" y="52"></rect><rect class="pixel l4" x="1131" y="78"></rect><rect class="pixel l4" x="1144" y="13"></rect><rect class="pixel l4" x="1144" y="52"></rect><rect class="pixel l4" x="1144" y="78"></rect><rect class="pixel l4" x="1157" y="0"></rect><rect class="pixel l1" x="1157" y="13"></rect><rect class="pixel l2" x="1157" y="26"></rect><rect class="pixel l1" x="1157" y="39"></rect><rect class="pixel l3" x="1157" y="52"></rect><rect class="pixel l4" x="1157" y="65"></rect><rect class="pixel l1" x="1157" y="78"></rect><rect class="pixel l4" x="1170" y="13"></rect><rect class="pixel l1" x="1170" y="65"></rect><rect class="pixel l1" x="1183" y="13"></rect><rect class="pixel l1" x="1183" y="78"></rect><rect class="pixel l1" x="1209" y="26"></rect><rect class="pixel l2" x="1222" y="0"></rect><rect class="pixel l1" x="1222" y="13"></rect><rect class="pixel l3" x="1222" y="26"></rect><rect class="pixel l2" x="1222" y="39"></rect><rect class="pixel l2" x="1222" y="52"></rect><rect class="pixel l2" x="1222" y="65"></rect><rect class="pixel l1" x="1222" y="78"></rect><rect class="pixel l1" x="1235" y="26"></rect><rect class="pixel l4" x="1235" y="78"></rect><rect class="pixel l4" x="1248" y="0"></rect><rect class="pixel l4" x="1248" y="13"></rect><rect class="pixel l4" x="1248" y="26"></rect><rect class="pixel l1" x="1248" y="39"></rect><rect class="pixel l4" x="1248" y="52"></rect><rect class="pixel l3" x="1248" y="78"></rect><rect class="pixel l4" x="1261" y="26"></rect><rect class="pixel l1" x="1261" y="52"></rect><rect class="pixel l1" x="1261" y="78"></rect><rect class="pixel l2" x="1274" y="0"></rect><rect class="pixel l2" x="1274" y="13"></rect><rect class="pixel l4" x="1274" y="26"></rect><rect class="pixel l4" x="1274" y="39"></rect><rect class="pixel l2" x="1274" y="52"></rect><rect class="pixel l3" x="1274" y="78"></rect><rect class="pixel l1" x="1287" y="26"></rect><rect class="pixel l1" x="1287" y="78"></rect><rect class="pixel l3" x="1313" y="65"></rect><rect class="pixel l3" x="1326" y="0"></rect><rect class="pixel l4" x="1326" y="13"></rect><rect class="pixel l4" x="1326" y="26"></rect><rect class="pixel l4" x="1326" y="39"></rect><rect class="pixel l2" x="1326" y="52"></rect><rect class="pixel l3" x="1326" y="78"></rect><rect class="pixel l2" x="1339" y="0"></rect><rect class="pixel l2" x="1339" y="26"></rect><rect class="pixel l3" x="1339" y="52"></rect><rect class="pixel l3" x="1339" y="65"></rect><rect class="pixel l1" x="1352" y="0"></rect><rect class="pixel l2" x="1352" y="13"></rect><rect class="pixel l4" x="1352" y="26"></rect><rect class="pixel l2" x="1352" y="39"></rect><rect class="pixel l4" x="1352" y="52"></rect><rect class="pixel l4" x="1365" y="0"></rect><rect class="pixel l4" x="1365" y="26"></rect><rect class="pixel l2" x="1365" y="52"></rect><rect class="pixel l1" x="1365" y="65"></rect><rect class="pixel l3" x="1365" y="78"></rect><rect class="pixel l3" x="1378" y="0"></rect><rect class="pixel l4" x="1378" y="13"></rect><rect class="pixel l2" x="1378" y="26"></rect><rect class="pixel l1" x="1378" y="39"></rect><rect class="pixel l1" x="1378" y="52"></rect><rect class="pixel l1" x="1391" y="65"></rect><rect class="pixel l2" x="1430" y="0"></rect><rect class="pixel l1" x="1430" y="13"></rect><rect class="pixel l3" x="1430" y="26"></rect><rect class="pixel l1" x="1430" y="39"></rect><rect class="pixel l3" x="1430" y="52"></rect><rect class="pixel l3" x="1430" y="78"></rect></g></svg><g transform="translate(13, 117)"><text font-size="13">Generated by kawarimidoll/typograssy</text></g><g transform="translate(621, 107)"><rect class="pixel l0" x="0" y="0"></rect><rect class="pixel l1" x="13" y="0"></rect><rect class="pixel l2" x="26" y="0"></rect><rect class="pixel l3" x="39" y="0"></rect><rect class="pixel l4" x="52" y="0"></rect></g></svg>