<svg xmlns="http://www.w3.org/2000/svg" id="typograssy" width="712" height="127"><style>#typograssy #text-pixels{animation:step 23200ms steps(116) infinite}#typograssy .pixel{width:10px;height:10px;rx:2px;ry:2px;stroke:rgba(27,31,35,.06);stroke-width:2px}#typograssy text{font-family:monospace}#typograssy .l0{fill:#ebedf0}#typograssy .l1{fill:#9be9a8}#typograssy .l2{fill:#40c463}#typograssy .l3{fill:#30a14e}#typograssy .l4{fill:#216e39}</style><rect width="712" height="127" fill="none" stroke="none"/><svg width="686" height="101" x="13" y="13"><g><rect x="0" y="0" class="pixel l0"/><rect x="0" y="13" class="pixel l0"/><rect x="0" y="26" class="pixel l0"/><rect x="0" y="39" class="pixel l0"/><rect x="0" y="52" class="pixel l0"/><rect x="0" y="65" class="pixel l0"/><rect x="0" y="78" class="pixel l0"/><rect x="13" y="0" class="pixel l0"/><rect x="13" y="13" class="pixel l0"/><rect x="13" y="26" class="pixel l0"/><rect x="13" y="39" class="pixel l0"/><rect x="13" y="52" class="pixel l0"/><rect x="13" y="65" class="pixel l0"/><rect x="13" y="78" class="pixel l0"/><rect x="26" y="0" class="pixel l0"/><rect x="26" y="13" class="pixel l0"/><rect x="26" y="26" class="pixel l0"/><rect x="26" y="39" class="pixel l0"/><rect x="26" y="52" class="pixel l0"/><rect x="26" y="65" class="pixel l0"/><rect x="26" y="78" class="pixel l0"/><rect x="39" y="0" class="pixel l0"/><rect x="39" y="13" class="pixel l0"/><rect x="39" y="26" class="pixel l0"/><rect x="39" y="39" class="pixel l0"/><rect x="39" y="52" class="pixel l0"/><rect x="39" y="65" class="pixel l0"/><rect x="39" y="78" class="pixel l0"/><rect x="52" y="0" class="pixel l0"/><rect x="52" y="13" class="pixel l0"/><rect x="52" y="26" class="pixel l0"/><rect x="52" y="39" class="pixel l0"/><rect x="52" y="52" class="pixel l0"/><rect x="52" y="65" class="pixel l0"/><rect x="52" y="78" class="pixel l0"/><rect x="65" y="0" class="pixel l0"/><rect x="65" y="13" class="pixel l0"/><rect x="65" y="26" class="pixel l0"/><rect x="65" y="39" class="pixel l0"/><rect x="65" y="52" class="pixel l0"/><rect x="65" y="65" class="pixel l0"/><rect x="65" y="78" class="pixel l0"/><rect x="78" y="0" class="pixel l0"/><rect x="78" y="13" class="pixel l0"/><rect x="78" y="26" class="pixel l0"/><rect x="78" y="39" class="pixel l0"/><rect x="78" y="52" class="pixel l0"/><rect x="78" y="65" class="pixel l0"/><rect x="78" y="78" class="pixel l0"/><rect x="91" y="0" class="pixel l0"/><rect x="91" y="13" class="pixel l0"/><rect x="91" y="26" class="pixel l0"/><rect x="91" y="39" class="pixel l0"/><rect x="91" y="52" class="pixel l0"/><rect x="91" y="65" class="pixel l0"/><rect x="91" y="78" class="pixel l0"/><rect x="104" y="0" class="pixel l0"/><rect x="104" y="13" class="pixel l0"/><rect x="104" y="26" class="pixel l0"/><rect x="104" y="39" class="pixel l0"/><rect x="104" y="52" class="pixel l0"/><rect x="104" y="65" class="pixel l0"/><rect x="104" y="78" class="pixel l0"/><rect x="117" y="0" class="pixel l0"/><rect x="117" y="13" class="pixel l0"/><rect x="117" y="26" class="pixel l0"/><rect x="117" y="39" class="pixel l0"/><rect x="117" y="52" class="pixel l0"/><rect x="117" y="65" class="pixel l0"/><rect x="117" y="78" class="pixel l0"/><rect x="130" y="0" class="pixel l0"/><rect x="130" y="13" class="pixel l0"/><rect x="130" y="26" class="pixel l0"/><rect x="130" y="39" class="pixel l0"/><rect x="130" y="52" class="pixel l0"/><rect x="130" y="65" class="pixel l0"/><rect x="130" y="78" class="pixel l0"/><rect x="143" y="0" class="pixel l0"/><rect x="143" y="13" class="pixel l0"/><rect x="143" y="26" class="pixel l0"/><rect x="143" y="39" class="pixel l0"/><rect x="143" y="52" class="pixel l0"/><rect x="143" y="65" class="pixel l0"/><rect x="143" y="78" class="pixel l0"/><rect x="156" y="0" class="pixel l0"/><rect x="156" y="13" class="pixel l0"/><rect x="156" y="26" class="pixel l0"/><rect x="156" y="39" class="pixel l0"/><rect x="156" y="52" class="pixel l0"/><rect x="156" y="65" class="pixel l0"/><rect x="156" y="78" class="pixel l0"/><rect x="169" y="0" class="pixel l0"/><rect x="169" y="13" class="pixel l0"/><rect x="169" y="26" class="pixel l0"/><rect x="169" y="39" class="pixel l0"/><rect x="169" y="52" class="pixel l0"/><rect x="169" y="65" class="pixel l0"/><rect x="169" y="78" class="pixel l0"/><rect x="182" y="0" class="pixel l0"/><rect x="182" y="13" class="pixel l0"/><rect x="182" y="26" class="pixel l0"/><rect x="182" y="39" class="pixel l0"/><rect x="182" y="52" class="pixel l0"/><rect x="182" y="65" class="pixel l0"/><rect x="182" y="78" class="pixel l0"/><rect x="195" y="0" class="pixel l0"/><rect x="195" y="13" class="pixel l0"/><rect x="195" y="26" class="pixel l0"/><rect x="195" y="39" class="pixel l0"/><rect x="195" y="52" class="pixel l0"/><rect x="195" y="65" class="pixel l0"/><rect x="195" y="78" class="pixel l0"/><rect x="208" y="0" class="pixel l0"/><rect x="208" y="13" class="pixel l0"/><rect x="208" y="26" class="pixel l0"/><rect x="208" y="39" class="pixel l0"/><rect x="208" y="52" class="pixel l0"/><rect x="208" y="65" class="pixel l0"/><rect x="208" y="78" class="pixel l0"/><rect x="221" y="0" class="pixel l0"/><rect x="221" y="13" class="pixel l0"/><rect x="221" y="26" class="pixel l0"/><rect x="221" y="39" class="pixel l0"/><rect x="221" y="52" class="pixel l0"/><rect x="221" y="65" class="pixel l0"/><rect x="221" y="78" class="pixel l0"/><rect x="234" y="0" class="pixel l0"/><rect x="234" y="13" class="pixel l0"/><rect x="234" y="26" class="pixel l0"/><rect x="234" y="39" class="pixel l0"/><rect x="234" y="52" class="pixel l0"/><rect x="234" y="65" class="pixel l0"/><rect x="234" y="78" class="pixel l0"/><rect x="247" y="0" class="pixel l0"/><rect x="247" y="13" class="pixel l0"/><rect x="247" y="26" class="pixel l0"/><rect x="247" y="39" class="pixel l0"/><rect x="247" y="52" class="pixel l0"/><rect x="247" y="65" class="pixel l0"/><rect x="247" y="78" class="pixel l0"/><rect x="260" y="0" class="pixel l0"/><rect x="260" y="13" class="pixel l0"/><rect x="260" y="26" class="pixel l0"/><rect x="260" y="39" class="pixel l0"/><rect x="260" y="52" class="pixel l0"/><rect x="260" y="65" class="pixel l0"/><rect x="260" y="78" class="pixel l0"/><rect x="273" y="0" class="pixel l0"/><rect x="273" y="13" class="pixel l0"/><rect x="273" y="26" class="pixel l0"/><rect x="273" y="39" class="pixel l0"/><rect x="273" y="52" class="pixel l0"/><rect x="273" y="65" class="pixel l0"/><rect x="273" y="78" class="pixel l0"/><rect x="286" y="0" class="pixel l0"/><rect x="286" y="13" class="pixel l0"/><rect x="286" y="26" class="pixel l0"/><rect x="286" y="39" class="pixel l0"/><rect x="286" y="52" class="pixel l0"/><rect x="286" y="65" class="pixel l0"/><rect x="286" y="78" class="pixel l0"/><rect x="299" y="0" class="pixel l0"/><rect x="299" y="13" class="pixel l0"/><rect x="299" y="26" class="pixel l0"/><rect x="299" y="39" class="pixel l0"/><rect x="299" y="52" class="pixel l0"/><rect x="299" y="65" class="pixel l0"/><rect x="299" y="78" class="pixel l0"/><rect x="312" y="0" class="pixel l0"/><rect x="312" y="13" class="pixel l0"/><rect x="312" y="26" class="pixel l0"/><rect x="312" y="39" class="pixel l0"/><rect x="312" y="52" class="pixel l0"/><rect x="312" y="65" class="pixel l0"/><rect x="312" y="78" class="pixel l0"/><rect x="325" y="0" class="pixel l0"/><rect x="325" y="13" class="pixel l0"/><rect x="325" y="26" class="pixel l0"/><rect x="325" y="39" class="pixel l0"/><rect x="325" y="52" class="pixel l0"/><rect x="325" y="65" class="pixel l0"/><rect x="325" y="78" class="pixel l0"/><rect x="338" y="0" class="pixel l0"/><rect x="338" y="13" class="pixel l0"/><rect x="338" y="26" class="pixel l0"/><rect x="338" y="39" class="pixel l0"/><rect x="338" y="52" class="pixel l0"/><rect x="338" y="65" class="pixel l0"/><rect x="338" y="78" class="pixel l0"/><rect x="351" y="0" class="pixel l0"/><rect x="351" y="13" class="pixel l0"/><rect x="351" y="26" class="pixel l0"/><rect x="351" y="39" class="pixel l0"/><rect x="351" y="52" class="pixel l0"/><rect x="351" y="65" class="pixel l0"/><rect x="351" y="78" class="pixel l0"/><rect x="364" y="0" class="pixel l0"/><rect x="364" y="13" class="pixel l0"/><rect x="364" y="26" class="pixel l0"/><rect x="364" y="39" class="pixel l0"/><rect x="364" y="52" class="pixel l0"/><rect x="364" y="65" class="pixel l0"/><rect x="364" y="78" class="pixel l0"/><rect x="377" y="0" class="pixel l0"/><rect x="377" y="13" class="pixel l0"/><rect x="377" y="26" class="pixel l0"/><rect x="377" y="39" class="pixel l0"/><rect x="377" y="52" class="pixel l0"/><rect x="377" y="65" class="pixel l0"/><rect x="377" y="78" class="pixel l0"/><rect x="390" y="0" class="pixel l0"/><rect x="390" y="13" class="pixel l0"/><rect x="390" y="26" class="pixel l0"/><rect x="390" y="39" class="pixel l0"/><rect x="390" y="52" class="pixel l0"/><rect x="390" y="65" class="pixel l0"/><rect x="390" y="78" class="pixel l0"/><rect x="403" y="0" class="pixel l0"/><rect x="403" y="13" class="pixel l0"/><rect x="403" y="26" class="pixel l0"/><rect x="403" y="39" class="pixel l0"/><rect x="403" y="52" class="pixel l0"/><rect x="403" y="65" class="pixel l0"/><rect x="403" y="78" class="pixel l0"/><rect x="416" y="0" class="pixel l0"/><rect x="416" y="13" class="pixel l0"/><rect x="416" y="26" class="pixel l0"/><rect x="416" y="39" class="pixel l0"/><rect x="416" y="52" class="pixel l0"/><rect x="416" y="65" class="pixel l0"/><rect x="416" y="78" class="pixel l0"/><rect x="429" y="0" class="pixel l0"/><rect x="429" y="13" class="pixel l0"/><rect x="429" y="26" class="pixel l0"/><rect x="429" y="39" class="pixel l0"/><rect x="429" y="52" class="pixel l0"/><rect x="429" y="65" class="pixel l0"/><rect x="429" y="78" class="pixel l0"/><rect x="442" y="0" class="pixel l0"/><rect x="442" y="13" class="pixel l0"/><rect x="442" y="26" class="pixel l0"/><rect x="442" y="39" class="pixel l0"/><rect x="442" y="52" class="pixel l0"/><rect x="442" y="65" class="pixel l0"/><rect x="442" y="78" class="pixel l0"/><rect x="455" y="0" class="pixel l0"/><rect x="455" y="13" class="pixel l0"/><rect x="455" y="26" class="pixel l0"/><rect x="455" y="39" class="pixel l0"/><rect x="455" y="52" class="pixel l0"/><rect x="455" y="65" class="pixel l0"/><rect x="455" y="78" class="pixel l0"/><rect x="468" y="0" class="pixel l0"/><rect x="468" y="13" class="pixel l0"/><rect x="468" y="26" class="pixel l0"/><rect x="468" y="39" class="pixel l0"/><rect x="468" y="52" class="pixel l0"/><rect x="468" y="65" class="pixel l0"/><rect x="468" y="78" class="pixel l0"/><rect x="481" y="0" class="pixel l0"/><rect x="481" y="13" class="pixel l0"/><rect x="481" y="26" class="pixel l0"/><rect x="481" y="39" class="pixel l0"/><rect x="481" y="52" class="pixel l0"/><rect x="481" y="65" class="pixel l0"/><rect x="481" y="78" class="pixel l0"/><rect x="494" y="0" class="pixel l0"/><rect x="494" y="13" class="pixel l0"/><rect x="494" y="26" class="pixel l0"/><rect x="494" y="39" class="pixel l0"/><rect x="494" y="52" class="pixel l0"/><rect x="494" y="65" class="pixel l0"/><rect x="494" y="78" class="pixel l0"/><rect x="507" y="0" class="pixel l0"/><rect x="507" y="13" class="pixel l0"/><rect x="507" y="26" class="pixel l0"/><rect x="507" y="39" class="pixel l0"/><rect x="507" y="52" class="pixel l0"/><rect x="507" y="65" class="pixel l0"/><rect x="507" y="78" class="pixel l0"/><rect x="520" y="0" class="pixel l0"/><rect x="520" y="13" class="pixel l0"/><rect x="520" y="26" class="pixel l0"/><rect x="520" y="39" class="pixel l0"/><rect x="520" y="52" class="pixel l0"/><rect x="520" y="65" class="pixel l0"/><rect x="520" y="78" class="pixel l0"/><rect x="533" y="0" class="pixel l0"/><rect x="533" y="13" class="pixel l0"/><rect x="533" y="26" class="pixel l0"/><rect x="533" y="39" class="pixel l0"/><rect x="533" y="52" class="pixel l0"/><rect x="533" y="65" class="pixel l0"/><rect x="533" y="78" class="pixel l0"/><rect x="546" y="0" class="pixel l0"/><rect x="546" y="13" class="pixel l0"/><rect x="546" y="26" class="pixel l0"/><rect x="546" y="39" class="pixel l0"/><rect x="546" y="52" class="pixel l0"/><rect x="546" y="65" class="pixel l0"/><rect x="546" y="78" class="pixel l0"/><rect x="559" y="0" class="pixel l0"/><rect x="559" y="13" class="pixel l0"/><rect x="559" y="26" class="pixel l0"/><rect x="559" y="39" class="pixel l0"/><rect x="559" y="52" class="pixel l0"/><rect x="559" y="65" class="pixel l0"/><rect x="559" y="78" class="pixel l0"/><rect x="572" y="0" class="pixel l0"/><rect x="572" y="13" class="pixel l0"/><rect x="572" y="26" class="pixel l0"/><rect x="572" y="39" class="pixel l0"/><rect x="572" y="52" class="pixel l0"/><rect x="572" y="65" class="pixel l0"/><rect x="572" y="78" class="pixel l0"/><rect x="585" y="0" class="pixel l0"/><rect x="585" y="13" class="pixel l0"/><rect x="585" y="26" class="pixel l0"/><rect x="585" y="39" class="pixel l0"/><rect x="585" y="52" class="pixel l0"/><rect x="585" y="65" class="pixel l0"/><rect x="585" y="78" class="pixel l0"/><rect x="598" y="0" class="pixel l0"/><rect x="598" y="13" class="pixel l0"/><rect x="598" y="26" class="pixel l0"/><rect x="598" y="39" class="pixel l0"/><rect x="598" y="52" class="pixel l0"/><rect x="598" y="65" class="pixel l0"/><rect x="598" y="78" class="pixel l0"/><rect x="611" y="0" class="pixel l0"/><rect x="611" y="13" class="pixel l0"/><rect x="611" y="26" class="pixel l0"/><rect x="611" y="39" class="pixel l0"/><rect x="611" y="52" class="pixel l0"/><rect x="611" y="65" class="pixel l0"/><rect x="611" y="78" class="pixel l0"/><rect x="624" y="0" class="pixel l0"/><rect x="624" y="13" class="pixel l0"/><rect x="624" y="26" class="pixel l0"/><rect x="624" y="39" class="pixel l0"/><rect x="624" y="52" class="pixel l0"/><rect x="624" y="65" class="pixel l0"/><rect x="624" y="78" class="pixel l0"/><rect x="637" y="0" class="pixel l0"/><rect x="637" y="13" class="pixel l0"/><rect x="637" y="26" class="pixel l0"/><rect x="637" y="39" class="pixel l0"/><rect x="637" y="52" class="pixel l0"/><rect x="637" y="65" class="pixel l0"/><rect x="637" y="78" class="pixel l0"/><rect x="650" y="0" class="pixel l0"/><rect x="650" y="13" class="pixel l0"/><rect x="650" y="26" class="pixel l0"/><rect x="650" y="39" class="pixel l0"/><rect x="650" y="52" class="pixel l0"/><rect x="650" y="65" class="pixel l0"/><rect x="650" y="78" class="pixel l0"/><rect x="663" y="0" class="pixel l0"/><rect x="663" y="13" class="pixel l0"/><rect x="663" y="26" class="pixel l0"/><rect x="663" y="39" class="pixel l0"/><rect x="663" y="52" class="pixel l0"/><rect x="663" y="65" class="pixel l0"/><rect x="663" y="78" class="pixel l0"/><rect x="676" y="0" class="pixel l0"/><rect x="676" y="13" class="pixel l0"/><rect x="676" y="26" class="pixel l0"/><rect x="676" y="39" class="pixel l0"/><rect x="676" y="52" class="pixel l0"/><rect x="676" y="65" class="pixel l0"/><rect x="676" y="78" class="pixel l0"/></g><g id="text-pixels"><rect x="13" y="0" class="pixel l2"/><rect x="1521" y="0" class="pixel l2"/><rect x="13" y="13" class="pixel l3"/><rect x="1521" y="13" class="pixel l3"/><rect x="13" y="26" class="pixel l2"/><rect x="1521" y="26" class="pixel l2"/><rect x="13" y="39" class="pixel l3"/><rect x="1521" y="39" class="pixel l3"/><rect x="13" y="52" class="pixel l1"/><rect x="1521" y="52" class="pixel l1"/><rect x="13" y="65" class="pixel l4"/><rect x="1521" y="65" class="pixel l4"/><rect x="13" y="78" class="pixel l4"/><rect x="1521" y="78" class="pixel l4"/><rect x="26" y="39" class="pixel l4"/><rect x="1534" y="39" class="pixel l4"/><rect x="39" y="0" class="pixel l4"/><rect x="1547" y="0" class="pixel l4"/><rect x="39" y="13" class="pixel l2"/><rect x="1547" y="13" class="pixel l2"/><rect x="39" y="26" class="pixel l4"/><rect x="1547" y="26" class="pixel l4"/><rect x="39" y="39" class="pixel l1"/><rect x="1547" y="39" class="pixel l1"/><rect x="39" y="52" class="pixel l2"/><rect x="1547" y="52" class="pixel l2"/><rect x="39" y="65" class="pixel l1"/><rect x="1547" y="65" class="pixel l1"/><rect x="39" y="78" class="pixel l4"/><rect x="1547" y="78" class="pixel l4"/><rect x="65" y="39" class="pixel l3"/><rect x="1573" y="39" class="pixel l3"/><rect x="65" y="52" class="pixel l3"/><rect x="1573" y="52" class="pixel l3"/><rect x="65" y="65" class="pixel l3"/><rect x="1573" y="65" class="pixel l3"/><rect x="78" y="26" class="pixel l4"/><rect x="1586" y="26" class="pixel l4"/><rect x="78" y="52" class="pixel l1"/><rect x="1586" y="52" class="pixel l1"/><rect x="78" y="78" class="pixel l2"/><rect x="1586" y="78" class="pixel l2"/><rect x="91" y="39" class="pixel l2"/><rect x="1599" y="39" class="pixel l2"/><rect x="91" y="52" class="pixel l1"/><rect x="1599" y="52" class="pixel l1"/><rect x="91" y="78" class="pixel l3"/><rect x="1599" y="78" class="pixel l3"/><rect x="117" y="0" class="pixel l2"/><rect x="1625" y="0" class="pixel l2"/><rect x="130" y="0" class="pixel l2"/><rect x="1638" y="0" class="pixel l2"/><rect x="130" y="13" class="pixel l4"/><rect x="1638" y="13" class="pixel l4"/><rect x="130" y="26" class="pixel l3"/><rect x="1638" y="26" class="pixel l3"/><rect x="130" y="39" class="pixel l1"/><rect x="1638" y="39" class="pixel l1"/><rect x="130" y="52" class="pixel l3"/><rect x="1638" y="52" class="pixel l3"/><rect x="130" y="65" class="pixel l4"/><rect x="1638" y="65" class="pixel l4"/><rect x="130" y="78" class="pixel l1"/><rect x="1638" y="78" class="pixel l1"/><rect x="169" y="0" class="pixel l2"/><rect x="1677" y="0" class="pixel l2"/><rect x="182" y="0" class="pixel l4"/><rect x="1690" y="0" class="pixel l4"/><rect x="182" y="13" class="pixel l1"/><rect x="1690" y="13" class="pixel l1"/><rect x="182" y="26" class="pixel l2"/><rect x="1690" y="26" class="pixel l2"/><rect x="182" y="39" class="pixel l1"/><rect x="1690" y="39" class="pixel l1"/><rect x="182" y="52" class="pixel l4"/><rect x="1690" y="52" class="pixel l4"/><rect x="182" y="65" class="pixel l1"/><rect x="1690" y="65" class="pixel l1"/><rect x="182" y="78" class="pixel l4"/><rect x="1690" y="78" class="pixel l4"/><rect x="221" y="39" class="pixel l1"/><rect x="1729" y="39" class="pixel l1"/><rect x="221" y="52" class="pixel l1"/><rect x="1729" y="52" class="pixel l1"/><rect x="221" y="65" class="pixel l2"/><rect x="1729" y="65" class="pixel l2"/><rect x="234" y="26" class="pixel l3"/><rect x="1742" y="26" class="pixel l3"/><rect x="234" y="78" class="pixel l2"/><rect x="1742" y="78" class="pixel l2"/><rect x="247" y="39" class="pixel l1"/><rect x="1755" y="39" class="pixel l1"/><rect x="247" y="52" class="pixel l2"/><rect x="1755" y="52" class="pixel l2"/><rect x="247" y="65" class="pixel l2"/><rect x="1755" y="65" class="pixel l2"/><rect x="325" y="26" class="pixel l1"/><rect x="1833" y="26" class="pixel l1"/><rect x="325" y="39" class="pixel l1"/><rect x="1833" y="39" class="pixel l1"/><rect x="325" y="52" class="pixel l1"/><rect x="1833" y="52" class="pixel l1"/><rect x="325" y="65" class="pixel l2"/><rect x="1833" y="65" class="pixel l2"/><rect x="325" y="78" class="pixel l2"/><rect x="1833" y="78" class="pixel l2"/><rect x="338" y="52" class="pixel l4"/><rect x="1846" y="52" class="pixel l4"/><rect x="338" y="65" class="pixel l1"/><rect x="1846" y="65" class="pixel l1"/><rect x="351" y="26" class="pixel l2"/><rect x="1859" y="26" class="pixel l2"/><rect x="351" y="39" class="pixel l1"/><rect x="1859" y="39" class="pixel l1"/><rect x="351" y="52" class="pixel l1"/><rect x="1859" y="52" class="pixel l1"/><rect x="351" y="65" class="pixel l1"/><rect x="1859" y="65" class="pixel l1"/><rect x="351" y="78" class="pixel l2"/><rect x="1859" y="78" class="pixel l2"/><rect x="377" y="39" class="pixel l2"/><rect x="1885" y="39" class="pixel l2"/><rect x="377" y="52" class="pixel l3"/><rect x="1885" y="52" class="pixel l3"/><rect x="377" y="65" class="pixel l2"/><rect x="1885" y="65" class="pixel l2"/><rect x="390" y="26" class="pixel l1"/><rect x="1898" y="26" class="pixel l1"/><rect x="390" y="78" class="pixel l2"/><rect x="1898" y="78" class="pixel l2"/><rect x="403" y="39" class="pixel l4"/><rect x="1911" y="39" class="pixel l4"/><rect x="403" y="52" class="pixel l4"/><rect x="1911" y="52" class="pixel l4"/><rect x="403" y="65" class="pixel l1"/><rect x="1911" y="65" class="pixel l1"/><rect x="429" y="26" class="pixel l2"/><rect x="1937" y="26" class="pixel l2"/><rect x="429" y="39" class="pixel l3"/><rect x="1937" y="39" class="pixel l3"/><rect x="429" y="52" class="pixel l1"/><rect x="1937" y="52" class="pixel l1"/><rect x="429" y="65" class="pixel l2"/><rect x="1937" y="65" class="pixel l2"/><rect x="429" y="78" class="pixel l3"/><rect x="1937" y="78" class="pixel l3"/><rect x="442" y="39" class="pixel l4"/><rect x="1950" y="39" class="pixel l4"/><rect x="455" y="26" class="pixel l3"/><rect x="1963" y="26" class="pixel l3"/><rect x="481" y="0" class="pixel l1"/><rect x="1989" y="0" class="pixel l1"/><rect x="494" y="0" class="pixel l2"/><rect x="2002" y="0" class="pixel l2"/><rect x="494" y="13" class="pixel l1"/><rect x="2002" y="13" class="pixel l1"/><rect x="494" y="26" class="pixel l1"/><rect x="2002" y="26" class="pixel l1"/><rect x="494" y="39" class="pixel l4"/><rect x="2002" y="39" class="pixel l4"/><rect x="494" y="52" class="pixel l2"/><rect x="2002" y="52" class="pixel l2"/><rect x="494" y="65" class="pixel l1"/><rect x="2002" y="65" class="pixel l1"/><rect x="494" y="78" class="pixel l3"/><rect x="2002" y="78" class="pixel l3"/><rect x="533" y="39" class="pixel l3"/><rect x="2041" y="39" class="pixel l3"/><rect x="533" y="52" class="pixel l3"/><rect x="2041" y="52" class="pixel l3"/><rect x="533" y="65" class="pixel l2"/><rect x="2041" y="65" class="pixel l2"/><rect x="546" y="26" class="pixel l3"/><rect x="2054" y="26" class="pixel l3"/><rect x="546" y="78" class="pixel l3"/><rect x="2054" y="78" class="pixel l3"/><rect x="559" y="0" class="pixel l3"/><rect x="2067" y="0" class="pixel l3"/><rect x="559" y="13" class="pixel l4"/><rect x="2067" y="13" class="pixel l4"/><rect x="559" y="26" class="pixel l4"/><rect x="2067" y="26" class="pixel l4"/><rect x="559" y="39" class="pixel l1"/><rect x="2067" y="39" class="pixel l1"/><rect x="559" y="52" class="pixel l2"/><rect x="2067" y="52" class="pixel l2"/><rect x="559" y="65" class="pixel l2"/><rect x="2067" y="65" class="pixel l2"/><rect x="559" y="78" class="pixel l4"/><rect x="2067" y="78" class="pixel l4"/><rect x="598" y="0" class="pixel l2"/><rect x="2106" y="0" class="pixel l2"/><rect x="598" y="13" class="pixel l2"/><rect x="2106" y="13" class="pixel l2"/><rect x="598" y="26" class="pixel l4"/><rect x="2106" y="26" class="pixel l4"/><rect x="598" y="39" class="pixel l2"/><rect x="2106" y="39" class="pixel l2"/><rect x="598" y="52" class="pixel l4"/><rect x="2106" y="52" class="pixel l4"/><rect x="598" y="78" class="pixel l1"/><rect x="2106" y="78" class="pixel l1"/><rect x="689" y="65" class="pixel l2"/><rect x="702" y="13" class="pixel l3"/><rect x="702" y="52" class="pixel l1"/><rect x="702" y="78" class="pixel l3"/><rect x="715" y="13" class="pixel l3"/><rect x="715" y="78" class="pixel l4"/><rect x="728" y="13" class="pixel l1"/><rect x="728" y="78" class="pixel l3"/><rect x="741" y="13" class="pixel l2"/><rect x="741" y="78" class="pixel l4"/><rect x="754" y="13" class="pixel l3"/><rect x="754" y="78" class="pixel l4"/><rect x="767" y="78" class="pixel l3"/><rect x="793" y="78" class="pixel l4"/><rect x="806" y="52" class="pixel l1"/><rect x="806" y="65" class="pixel l4"/><rect x="819" y="26" class="pixel l4"/><rect x="819" y="39" class="pixel l3"/><rect x="832" y="0" class="pixel l4"/><rect x="832" y="13" class="pixel l1"/><rect x="832" y="39" class="pixel l3"/><rect x="845" y="52" class="pixel l3"/><rect x="845" y="65" class="pixel l4"/><rect x="858" y="78" class="pixel l3"/><rect x="871" y="52" class="pixel l4"/><rect x="871" y="65" class="pixel l2"/><rect x="897" y="0" class="pixel l4"/><rect x="897" y="13" class="pixel l4"/><rect x="897" y="26" class="pixel l3"/><rect x="897" y="39" class="pixel l3"/><rect x="897" y="52" class="pixel l2"/><rect x="897" y="65" class="pixel l1"/><rect x="897" y="78" class="pixel l2"/><rect x="923" y="65" class="pixel l2"/><rect x="936" y="13" class="pixel l4"/><rect x="936" y="52" class="pixel l1"/><rect x="936" y="78" class="pixel l4"/><rect x="949" y="13" class="pixel l2"/><rect x="949" y="78" class="pixel l3"/><rect x="962" y="13" class="pixel l1"/><rect x="962" y="78" class="pixel l4"/><rect x="975" y="78" class="pixel l2"/><rect x="1001" y="13" class="pixel l3"/><rect x="1014" y="13" class="pixel l3"/><rect x="1014" y="39" class="pixel l1"/><rect x="1014" y="52" class="pixel l3"/><rect x="1027" y="0" class="pixel l1"/><rect x="1027" y="13" class="pixel l2"/><rect x="1027" y="26" class="pixel l4"/><rect x="1027" y="52" class="pixel l4"/><rect x="1027" y="78" class="pixel l1"/><rect x="1040" y="13" class="pixel l3"/><rect x="1040" y="39" class="pixel l2"/><rect x="1040" y="78" class="pixel l2"/><rect x="1053" y="13" class="pixel l3"/><rect x="1053" y="39" class="pixel l3"/><rect x="1053" y="78" class="pixel l1"/><rect x="1066" y="13" class="pixel l1"/><rect x="1066" y="39" class="pixel l2"/><rect x="1066" y="65" class="pixel l4"/><rect x="1079" y="13" class="pixel l1"/><rect x="1079" y="52" class="pixel l1"/><rect x="1105" y="0" class="pixel l2"/><rect x="1105" y="13" class="pixel l1"/><rect x="1105" y="26" class="pixel l4"/><rect x="1105" y="39" class="pixel l3"/><rect x="1105" y="52" class="pixel l3"/><rect x="1105" y="65" class="pixel l2"/><rect x="1105" y="78" class="pixel l1"/><rect x="1118" y="65" class="pixel l1"/><rect x="1131" y="13" class="pixel l1"/><rect x="1131" y="52" class="pixel l1"/><rect x="1131" y="78" class="pixel l3"/><rect x="1144" y="13" class="pixel l4"/><rect x="1144" y="52" class="pixel l3"/><rect x="1144" y="78" class="pixel l2"/><rect x="1157" y="0" class="pixel l2"/><rect x="1157" y="13" class="pixel l1"/><rect x="1157" y="26" class="pixel l3"/><rect x="1157" y="39" class="pixel l4"/><rect x="1157" y="52" class="pixel l4"/><rect x="1157" y="65" class="pixel l3"/><rect x="1157" y="78" class="pixel l1"/><rect x="1170" y="13" class="pixel l1"/><rect x="1170" y="65" class="pixel l2"/><rect x="1183" y="13" class="pixel l1"/><rect x="1183" y="78" class="pixel l1"/><rect x="1209" y="26" class="pixel l2"/><rect x="1222" y="0" class="pixel l4"/><rect x="1222" y="13" class="pixel l2"/><rect x="1222" y="26" class="pixel l2"/><rect x="1222" y="39" class="pixel l2"/><rect x="1222" y="52" class="pixel l3"/><rect x="1222" y="65" class="pixel l4"/><rect x="1222" y="78" class="pixel l1"/><rect x="1235" y="26" class="pixel l1"/><rect x="1235" y="78" class="pixel l2"/><rect x="1248" y="0" class="pixel l2"/><rect x="1248" y="13" class="pixel l2"/><rect x="1248" y="26" class="pixel l3"/><rect x="1248" y="39" class="pixel l3"/><rect x="1248" y="52" class="pixel l3"/><rect x="1248" y="78" class="pixel l4"/><rect x="1261" y="26" class="pixel l2"/><rect x="1261" y="52" class="pixel l1"/><rect x="1261" y="78" class="pixel l4"/><rect x="1274" y="0" class="pixel l2"/><rect x="1274" y="13" class="pixel l3"/><rect x="1274" y="26" class="pixel l1"/><rect x="1274" y="39" class="pixel l4"/><rect x="1274" y="52" class="pixel l2"/><rect x="1274" y="78" class="pixel l4"/><rect x="1287" y="26" class="pixel l4"/><rect x="1287" y="78" class="pixel l4"/><rect x="1313" y="65" class="pixel l2"/><rect x="1326" y="0" class="pixel l2"/><rect x="1326" y="13" class="pixel l3"/><rect x="1326" y="26" class="pixel l3"/><rect x="1326" y="39" class="pixel l3"/><rect x="1326" y="52" class="pixel l2"/><rect x="1326" y="78" class="pixel l4"/><rect x="1339" y="0" class="pixel l4"/><rect x="1339" y="26" class="pixel l1"/><rect x="1339" y="52" class="pixel l3"/><rect x="1339" y="65" class="pixel l4"/><rect x="1352" y="0" class="pixel l3"/><rect x="1352" y="13" class="pixel l2"/><rect x="1352" y="26" class="pixel l2"/><rect x="1352" y="39" class="pixel l4"/><rect x="1352" y="52" class="pixel l1"/><rect x="1365" y="0" class="pixel l1"/><rect x="1365" y="26" class="pixel l4"/><rect x="1365" y="52" class="pixel l2"/><rect x="1365" y="65" class="pixel l1"/><rect x="1365" y="78" class="pixel l2"/><rect x="1378" y="0" class="pixel l3"/><rect x="1378" y="13" class="pixel l2"/><rect x="1378" y="26" class="pixel l2"/><rect x="1378" y="39" class="pixel l3"/><rect x="1378" y="52" class="pixel l3"/><rect x="1391" y="65" class="pixel l2"/><rect x="1430" y="0" class="pixel l3"/><rect x="1430" y="13" class="pixel l4"/><rect x="1430" y="26" class="pixel l4"/><rect x="1430" y="39" class="pixel l1"/><rect x="1430" y="52" class="pixel l1"/><rect x="1430" y="78" class="pixel l4"/></g></svg><g><text font-size="13" transform="translate(13, 117)">Generated by kawarimidoll/typograssy</text></g><g transform="translate(621, 107)"><rect x="0" y="0" class="pixel l0"/><rect x="13" y="0" class="pixel l1"/><rect x="26" y="0" class="pixel l2"/><rect x="39" y="0" class="pixel l3"/><rect x="52" y="0" class="pixel l4"/></g></svg>