<svg xmlns="http://www.w3.org/2000/svg" width="160" height="160"><rect width="140" height="140" x="10" y="10"/><rect width="120" height="120" x="20" y="20" fill="#E1D282"/><rect width="10" height="10" x="30" y="50"/><rect width="10" height="10" x="30" y="90"/><rect width="10" height="10" x="30" y="130"/><rect width="10" height="10" x="40" y="20"/><rect width="10" height="10" x="40" y="40"/><rect width="10" height="10" x="40" y="60"/><rect width="10" height="10" x="40" y="80"/><rect width="10" height="10" x="40" y="100"/><rect width="10" height="10" x="40" y="120"/><rect width="10" height="10" x="50" y="30"/><rect width="10" height="10" x="50" y="70"/><rect width="10" height="10" x="50" y="110"/><rect width="10" height="70" x="90" y="50"/><rect width="70" height="10" x="60" y="80"/><rect width="30" height="30" x="80" y="70"/><rect width="10" height="10" x="90" y="80" fill="#E1D282"/></svg>