<svg width="160" height="160" xmlns="http://www.w3.org/2000/svg"><rect x="10" y="10" width="140" height="140"/><rect x="20" y="20" width="120" height="120" fill="rgb(225,210,130)"/><rect x="30" y="50" width="10" height="10"/><rect x="30" y="90" width="10" height="10"/><rect x="30" y="130" width="10" height="10"/><rect x="40" y="20" width="10" height="10"/><rect x="40" y="40" width="10" height="10"/><rect x="40" y="60" width="10" height="10"/><rect x="40" y="80" width="10" height="10"/><rect x="40" y="100" width="10" height="10"/><rect x="40" y="120" width="10" height="10"/><rect x="50" y="30" width="10" height="10"/><rect x="50" y="70" width="10" height="10"/><rect x="50" y="110" width="10" height="10"/><rect x="90" y="50" width="10" height="70"/><rect x="60" y="80" width="70" height="10"/><rect x="80" y="70" width="30" height="30"/><rect x="90" y="80" width="10" height="10" fill="rgb(225,210,130)"/></svg>
