 <svg width="350" height="165" viewBox="0 0 350 165" fill="none" xmlns="http://www.w3.org/2000/svg" role="img" aria-labelledby="descId"><title id="titleId"></title><desc id="descId"></desc><style> .header { font: 600 18px 'Segoe UI', Ubuntu, Sans-Serif; fill: #2f80ed; animation: fadeInAnimation 0.8s ease-in-out forwards; } @supports(-moz-appearance: auto) { /* Selector detects Firefox */ .header { font-size: 15.5px; } } .lang-name { font: 400 11px 'Segoe UI', Ubuntu, Sans-Serif; fill: #434d58 } /* Animations */ @keyframes scaleInAnimation { from { transform: translate(-5px, 5px) scale(0); } to { transform: translate(-5px, 5px) scale(1); } } @keyframes fadeInAnimation { from { opacity: 0; } to { opacity: 1; } } * { animation-duration: 0s !important; animation-delay: 0s !important; } </style><rect data-testid="card-bg" x="0.5" y="0.5" rx="4.5" height="99%" stroke="#e4e2e2" width="349" fill="#fffefe" stroke-opacity="1" /><g data-testid="card-title" transform="translate(25, 35)"><g transform="translate(0, 0)"><text x="0" y="0" class="header" data-testid="header" >Most Used Languages</text></g></g><g data-testid="main-card-body" transform="translate(0, 55)"><svg data-testid="lang-items" x="25"><mask id="rect-mask"><rect x="0" y="0" width="300" height="8" fill="white" rx="5" /></mask><rect mask="url(#rect-mask)" data-testid="lang-progress" x="0" y="0" width="125.48" height="8" fill="#3178c6" /><rect mask="url(#rect-mask)" data-testid="lang-progress" x="125.48" y="0" width="81.97" height="8" fill="#f1e05a" /><rect mask="url(#rect-mask)" data-testid="lang-progress" x="207.45" y="0" width="55.01" height="8" fill="#199f4b" /><rect mask="url(#rect-mask)" data-testid="lang-progress" x="262.46" y="0" width="18.96" height="8" fill="#e34c26" /><rect mask="url(#rect-mask)" data-testid="lang-progress" x="281.41999999999996" y="0" width="18.57" height="8" fill="#00B4AB" /><g transform="translate(0, 25)"><g transform="translate(0, 0)"><g transform="translate(0, 0)"><g><circle cx="5" cy="6" r="5" fill="#3178c6" /><text data-testid="lang-name" x="15" y="10" class='lang-name'> TypeScript 41.83% </text></g></g><g transform="translate(0, 25)"><g><circle cx="5" cy="6" r="5" fill="#f1e05a" /><text data-testid="lang-name" x="15" y="10" class='lang-name'> JavaScript 27.32% </text></g></g><g transform="translate(0, 50)"><g><circle cx="5" cy="6" r="5" fill="#199f4b" /><text data-testid="lang-name" x="15" y="10" class='lang-name'> Vim script 18.34% </text></g></g></g><g transform="translate(150, 0)"><g transform="translate(0, 0)"><g><circle cx="5" cy="6" r="5" fill="#e34c26" /><text data-testid="lang-name" x="15" y="10" class='lang-name'> HTML 6.32% </text></g></g><g transform="translate(0, 25)"><g><circle cx="5" cy="6" r="5" fill="#00B4AB" /><text data-testid="lang-name" x="15" y="10" class='lang-name'> Dart 6.19% </text></g></g></g></g></svg></g></svg> 