 <svg width="350" height="165" viewBox="0 0 350 165" fill="none" xmlns="http://www.w3.org/2000/svg" > <style> .header { font: 600 18px 'Segoe UI', Ubuntu, Sans-Serif; fill: #2f80ed; animation: fadeInAnimation 0.8s ease-in-out forwards; }  .lang-name { font: 400 11px 'Segoe UI', Ubuntu, Sans-Serif; fill: #333 }   /* Animations */ @keyframes scaleInAnimation { from { transform: translate(-5px, 5px) scale(0); } to { transform: translate(-5px, 5px) scale(1); } } @keyframes fadeInAnimation { from { opacity: 0; } to { opacity: 1; } }  * { animation-duration: 0s !important; animation-delay: 0s !important; } </style> undefined <rect data-testid="card-bg" x="0.5" y="0.5" rx="4.5" height="99%" stroke="#e4e2e2" width="349" fill="#fffefe" stroke-opacity="1" />  <g data-testid="card-title" transform="translate(25, 35)" > <g transform="translate(0, 0)"> <text x="0" y="0" class="header" data-testid="header" >Most Used Languages</text> </g> </g>  <g data-testid="main-card-body" transform="translate(0, 55)" >  <svg data-testid="lang-items" x="25">  <mask id="rect-mask"> <rect x="0" y="0" width="300" height="8" fill="white" rx="5" /> </mask>  <rect mask="url(#rect-mask)"  data-testid="lang-progress" x="0"  y="0" width="144.83"  height="8" fill="#f1e05a" />  <rect mask="url(#rect-mask)"  data-testid="lang-progress" x="144.83"  y="0" width="96.21"  height="8" fill="#2b7489" />  <rect mask="url(#rect-mask)"  data-testid="lang-progress" x="241.04000000000002"  y="0" width="22.83"  height="8" fill="#199f4b" />  <rect mask="url(#rect-mask)"  data-testid="lang-progress" x="263.87"  y="0" width="18.43"  height="8" fill="#701516" />  <rect mask="url(#rect-mask)"  data-testid="lang-progress" x="282.3"  y="0" width="17.70"  height="8" fill="#ffac45" />   <g transform="translate(0, 25)"> <circle cx="5" cy="6" r="5" fill="#f1e05a" /> <text data-testid="lang-name" x="15" y="10" class='lang-name'> JavaScript 48.28% </text> </g>  <g transform="translate(150, 25)"> <circle cx="5" cy="6" r="5" fill="#2b7489" /> <text data-testid="lang-name" x="15" y="10" class='lang-name'> TypeScript 32.07% </text> </g>  <g transform="translate(0, 50)"> <circle cx="5" cy="6" r="5" fill="#199f4b" /> <text data-testid="lang-name" x="15" y="10" class='lang-name'> Vim script 7.61% </text> </g>  <g transform="translate(150, 50)"> <circle cx="5" cy="6" r="5" fill="#701516" /> <text data-testid="lang-name" x="15" y="10" class='lang-name'> Ruby 6.14% </text> </g>  <g transform="translate(0, 75)"> <circle cx="5" cy="6" r="5" fill="#ffac45" /> <text data-testid="lang-name" x="15" y="10" class='lang-name'> Swift 5.90% </text> </g>   </svg>  </g> </svg> 