<svg xmlns="http://www.w3.org/2000/svg" width="350" height="165" fill="none" viewBox="0 0 350 165"><style>.header{font:600 18px &apos;Segoe UI&apos;,Ubuntu,Sans-Serif;fill:#2f80ed;animation:fadeInAnimation .8s ease-in-out forwards}.lang-name{font:400 11px &apos;Segoe UI&apos;,Ubuntu,Sans-Serif;fill:#333}*{animation-duration:0s!important;animation-delay:0s!important}</style><rect width="349" height="99%" x=".5" y=".5" fill="#fffefe" stroke="#e4e2e2" stroke-opacity="1" data-testid="card-bg" rx="4.5"/><g data-testid="card-title"><g><text x="0" y="0" class="header" data-testid="header" transform="translate(25, 35) translate(0, 0)">Most Used Languages</text></g></g><g data-testid="main-card-body" transform="translate(0, 55)"><svg x="25" data-testid="lang-items"><mask id="rect-mask"><rect width="300" height="8" x="0" y="0" fill="#fff" rx="5"/></mask><rect width="126.77" height="8" x="0" y="0" fill="#f1e05a" data-testid="lang-progress" mask="url(#rect-mask)"/><rect width="93.52" height="8" x="126.77" y="0" fill="#2b7489" data-testid="lang-progress" mask="url(#rect-mask)"/><rect width="29.58" height="8" x="220.29" y="0" fill="#00B4AB" data-testid="lang-progress" mask="url(#rect-mask)"/><rect width="26.52" height="8" x="249.87" y="0" fill="#e34c26" data-testid="lang-progress" mask="url(#rect-mask)"/><rect width="23.6" height="8" x="276.39" y="0" fill="#199f4b" data-testid="lang-progress" mask="url(#rect-mask)"/><g transform="translate(0, 25)"><circle cx="5" cy="6" r="5" fill="#f1e05a"/><text x="15" y="10" class="lang-name" data-testid="lang-name">JavaScript 42.26%</text></g><g transform="translate(150, 25)"><circle cx="5" cy="6" r="5" fill="#2b7489"/><text x="15" y="10" class="lang-name" data-testid="lang-name">TypeScript 31.17%</text></g><g transform="translate(0, 50)"><circle cx="5" cy="6" r="5" fill="#00B4AB"/><text x="15" y="10" class="lang-name" data-testid="lang-name">Dart 9.86%</text></g><g transform="translate(150, 50)"><circle cx="5" cy="6" r="5" fill="#e34c26"/><text x="15" y="10" class="lang-name" data-testid="lang-name">HTML 8.84%</text></g><g transform="translate(0, 75)"><circle cx="5" cy="6" r="5" fill="#199f4b"/><text x="15" y="10" class="lang-name" data-testid="lang-name">Vim script 7.87%</text></g></svg></g></svg>