<svg xmlns="http://www.w3.org/2000/svg" width="300" height="165" fill="none" aria-labelledby="descId" role="img" viewBox="0 0 300 165"><title id="titleId"/><desc id="descId"/><style>.header{font:600 18px &apos;Segoe UI&apos;,Ubuntu,Sans-Serif;fill:#2f80ed;animation:fadeInAnimation .8s ease-in-out forwards}@supports (-moz-appearance:auto){.header{font-size:15.5px}}.lang-name{font:400 11px &quot;Segoe UI&quot;,Ubuntu,Sans-Serif;fill:#434d58}.stagger{opacity:0;animation:fadeInAnimation .3s ease-in-out forwards}#rect-mask rect{animation:slideInAnimation 1s ease-in-out forwards}</style><rect width="299" height="99%" x=".5" y=".5" fill="#fffefe" stroke="#e4e2e2" stroke-opacity="1" data-testid="card-bg" rx="4.5"/><g data-testid="card-title"><g><text x="0" y="0" class="header" data-testid="header" transform="translate(25, 35) translate(0, 0)">Most Used Languages</text></g></g><g data-testid="main-card-body" transform="translate(0, 55)"><svg x="25" data-testid="lang-items"><mask id="rect-mask"><rect width="250" height="8" x="0" y="0" fill="#fff" rx="5"/></mask><rect width="92.89" height="8" x="0" y="0" fill="#3178c6" data-testid="lang-progress" mask="url(#rect-mask)"/><rect width="67.53" height="8" x="92.89" y="0" fill="#199f4b" data-testid="lang-progress" mask="url(#rect-mask)"/><rect width="59.95" height="8" x="160.42" y="0" fill="#f1e05a" data-testid="lang-progress" mask="url(#rect-mask)"/><rect width="15.36" height="8" x="220.37" y="0" fill="navy" data-testid="lang-progress" mask="url(#rect-mask)"/><rect width="14.26" height="8" x="235.73" y="0" fill="#e34c26" data-testid="lang-progress" mask="url(#rect-mask)"/><g><g><g><g class="stagger" style="animation-delay:450ms" transform="translate(0, 25) translate(0, 0) translate(0, 0)"><circle cx="5" cy="6" r="5" fill="#3178c6"/><text x="15" y="10" class="lang-name" data-testid="lang-name">TypeScript 37.16%</text></g></g><g><g class="stagger" style="animation-delay:600ms" transform="translate(0, 25) translate(0, 0) translate(0, 25)"><circle cx="5" cy="6" r="5" fill="#199f4b"/><text x="15" y="10" class="lang-name" data-testid="lang-name">Vim Script 27.01%</text></g></g><g><g class="stagger" style="animation-delay:750ms" transform="translate(0, 25) translate(0, 0) translate(0, 50)"><circle cx="5" cy="6" r="5" fill="#f1e05a"/><text x="15" y="10" class="lang-name" data-testid="lang-name">JavaScript 23.98%</text></g></g></g><g><g><g class="stagger" style="animation-delay:450ms" transform="translate(0, 25) translate(150, 0) translate(0, 0)"><circle cx="5" cy="6" r="5" fill="navy"/><text x="15" y="10" class="lang-name" data-testid="lang-name">Lua 6.14%</text></g></g><g><g class="stagger" style="animation-delay:600ms" transform="translate(0, 25) translate(150, 0) translate(0, 25)"><circle cx="5" cy="6" r="5" fill="#e34c26"/><text x="15" y="10" class="lang-name" data-testid="lang-name">HTML 5.70%</text></g></g></g></g></svg></g></svg>