 <svg width="350" height="165" viewBox="0 0 350 165" fill="none" xmlns="http://www.w3.org/2000/svg" > <style> .header { font: 600 18px 'Segoe UI', Ubuntu, Sans-Serif; fill: #2f80ed; animation: fadeInAnimation 0.8s ease-in-out forwards; }  .lang-name { font: 400 11px 'Segoe UI', Ubuntu, Sans-Serif; fill: #333 }   /* Animations */ @keyframes scaleInAnimation { from { transform: translate(-5px, 5px) scale(0); } to { transform: translate(-5px, 5px) scale(1); } } @keyframes fadeInAnimation { from { opacity: 0; } to { opacity: 1; } }  * { animation-duration: 0s !important; animation-delay: 0s !important; } </style>  <rect data-testid="card-bg" x="0.5" y="0.5" rx="4.5" height="99%" stroke="#e4e2e2" width="349" fill="#fffefe" stroke-opacity="1" />  <g data-testid="card-title" transform="translate(25, 35)" > <g transform="translate(0, 0)"> <text x="0" y="0" class="header" data-testid="header" >Most Used Languages</text> </g> </g>  <g data-testid="main-card-body" transform="translate(0, 55)" >  <svg data-testid="lang-items" x="25">  <mask id="rect-mask"> <rect x="0" y="0" width="300" height="8" fill="white" rx="5" /> </mask>  <rect mask="url(#rect-mask)"  data-testid="lang-progress" x="0"  y="0" width="129.40"  height="8" fill="#f1e05a" />  <rect mask="url(#rect-mask)"  data-testid="lang-progress" x="129.4"  y="0" width="89.24"  height="8" fill="#2b7489" />  <rect mask="url(#rect-mask)"  data-testid="lang-progress" x="218.64"  y="0" width="30.20"  height="8" fill="#00B4AB" />  <rect mask="url(#rect-mask)"  data-testid="lang-progress" x="248.83999999999997"  y="0" width="27.07"  height="8" fill="#e34c26" />  <rect mask="url(#rect-mask)"  data-testid="lang-progress" x="275.90999999999997"  y="0" width="24.09"  height="8" fill="#199f4b" />   <g transform="translate(0, 25)"> <circle cx="5" cy="6" r="5" fill="#f1e05a" /> <text data-testid="lang-name" x="15" y="10" class='lang-name'> JavaScript 43.13% </text> </g>  <g transform="translate(150, 25)"> <circle cx="5" cy="6" r="5" fill="#2b7489" /> <text data-testid="lang-name" x="15" y="10" class='lang-name'> TypeScript 29.75% </text> </g>  <g transform="translate(0, 50)"> <circle cx="5" cy="6" r="5" fill="#00B4AB" /> <text data-testid="lang-name" x="15" y="10" class='lang-name'> Dart 10.07% </text> </g>  <g transform="translate(150, 50)"> <circle cx="5" cy="6" r="5" fill="#e34c26" /> <text data-testid="lang-name" x="15" y="10" class='lang-name'> HTML 9.02% </text> </g>  <g transform="translate(0, 75)"> <circle cx="5" cy="6" r="5" fill="#199f4b" /> <text data-testid="lang-name" x="15" y="10" class='lang-name'> Vim script 8.03% </text> </g>   </svg>  </g> </svg> 