<svg xmlns="http://www.w3.org/2000/svg" width="350" height="165" fill="none" viewBox="0 0 350 165"><style>.header{font:600 18px &apos;Segoe UI&apos;,Ubuntu,Sans-Serif;fill:#2f80ed;animation:fadeInAnimation .8s ease-in-out forwards}.lang-name{font:400 11px &apos;Segoe UI&apos;,Ubuntu,Sans-Serif;fill:#333}*{animation-duration:0s!important;animation-delay:0s!important}</style>undefined<rect width="349" height="99%" x=".5" y=".5" fill="#fffefe" stroke="#E4E2E2" stroke-opacity="1" data-testid="card-bg" rx="4.5"/><g data-testid="card-title"><g><text x="0" y="0" class="header" data-testid="header" transform="translate(25, 35) translate(0, 0)">Most Used Languages</text></g></g><g data-testid="main-card-body" transform="translate(0, 55)"><svg x="25" data-testid="lang-items"><mask id="rect-mask"><rect width="300" height="8" x="0" y="0" fill="#fff" rx="5"/></mask><rect width="216.27" height="8" x="0" y="0" fill="#f1e05a" data-testid="lang-progress" mask="url(#rect-mask)"/><rect width="27.61" height="8" x="216.27" y="0" fill="#701516" data-testid="lang-progress" mask="url(#rect-mask)"/><rect width="19.77" height="8" x="243.88" y="0" fill="#199f4b" data-testid="lang-progress" mask="url(#rect-mask)"/><rect width="19.23" height="8" x="263.65" y="0" fill="#2b7489" data-testid="lang-progress" mask="url(#rect-mask)"/><rect width="17.13" height="8" x="282.88" y="0" fill="#89e051" data-testid="lang-progress" mask="url(#rect-mask)"/><g transform="translate(0, 25)"><circle cx="5" cy="6" r="5" fill="#f1e05a"/><text x="15" y="10" class="lang-name" data-testid="lang-name">JavaScript 72.09%</text></g><g transform="translate(150, 25)"><circle cx="5" cy="6" r="5" fill="#701516"/><text x="15" y="10" class="lang-name" data-testid="lang-name">Ruby 9.20%</text></g><g transform="translate(0, 50)"><circle cx="5" cy="6" r="5" fill="#199f4b"/><text x="15" y="10" class="lang-name" data-testid="lang-name">Vim script 6.59%</text></g><g transform="translate(150, 50)"><circle cx="5" cy="6" r="5" fill="#2b7489"/><text x="15" y="10" class="lang-name" data-testid="lang-name">TypeScript 6.41%</text></g><g transform="translate(0, 75)"><circle cx="5" cy="6" r="5" fill="#89e051"/><text x="15" y="10" class="lang-name" data-testid="lang-name">Shell 5.71%</text></g></svg></g></svg>